<?xml version="1.0" encoding="UTF-8" standalone="no"?>
<svg
   version="1.1"
   width="45"
   height="45"
   id="svg4"
   sodipodi:docname="Chess_prt45.svg"
   inkscape:version="1.1.1 (3bf5ae0d25, 2021-09-20)"
   xmlns:inkscape="http://www.inkscape.org/namespaces/inkscape"
   xmlns:sodipodi="http://sodipodi.sourceforge.net/DTD/sodipodi-0.dtd"
   xmlns="http://www.w3.org/2000/svg"
   xmlns:svg="http://www.w3.org/2000/svg">
  <defs
     id="defs8" />
  <sodipodi:namedview
     id="namedview6"
     pagecolor="#ffffff"
     bordercolor="#666666"
     borderopacity="1.0"
     inkscape:pageshadow="2"
     inkscape:pageopacity="0.0"
     inkscape:pagecheckerboard="0"
     showgrid="false"
     inkscape:snap-grids="true"
     inkscape:zoom="18.466667"
     inkscape:cx="22.5"
     inkscape:cy="22.472924"
     inkscape:window-width="1920"
     inkscape:window-height="1003"
     inkscape:window-x="0"
     inkscape:window-y="0"
     inkscape:window-maximized="1"
     inkscape:current-layer="svg4" />
  <path
     d="m 22.5,9 c -2.21,0 -4,1.79 -4,4 0,0.89 0.29,1.71 0.78,2.38 C 17.33,16.5 16,18.59 16,21 c 0,2.03 0.94,3.84 2.41,5.03 C 15.41,27.09 11,31.58 11,39.5 H 34 C 34,31.58 29.59,27.09 26.59,26.03 28.06,24.84 29,23.03 29,21 29,18.59 27.67,16.5 25.72,15.38 26.21,14.71 26.5,13.89 26.5,13 c 0,-2.21 -1.79,-4 -4,-4 z"
     style="opacity:1; fill:#000000; fill-opacity:1; fill-rule:nonzero; stroke:#000000; stroke-width:1.5; stroke-linecap:round; stroke-linejoin:miter; stroke-miterlimit:4; stroke-dasharray:none; stroke-opacity:1;"
     id="path2" />
  <path
     style="fill:#ff0000;stroke-width:0.0541516"
     d="m 10.261925,39.679603 c 8.65e-4,-2.381761 0.417942,-4.8084 1.175042,-6.836643 1.056066,-2.829161 3.116768,-5.475538 5.272741,-6.771316 l 0.42936,-0.258053 -0.198236,-0.235315 c -0.261799,-0.310767 -0.723,-1.021126 -0.926256,-1.426651 -0.803232,-1.602572 -0.942296,-3.64544 -0.365529,-5.369683 0.366085,-1.094409 0.89973,-1.966176 1.699861,-2.776909 0.286621,-0.290418 0.617139,-0.601564 0.734487,-0.691438 l 0.213358,-0.163405 -0.137988,-0.318777 c -0.270412,-0.6247 -0.34179,-1.015035 -0.34051,-1.862099 0.0014,-0.903168 0.06573,-1.199131 0.429824,-1.976534 0.694185,-1.4821902 2.090244,-2.4798212 3.753134,-2.682009 1.577507,-0.1918063 3.274291,0.5478881 4.269871,1.861404 0.290747,0.383597 0.663759,1.148695 0.809284,1.659955 0.07634,0.268186 0.100472,0.538923 0.101377,1.137184 0.0013,0.847064 -0.0701,1.237399 -0.34051,1.862099 l -0.137988,0.318777 0.213358,0.163405 c 0.416164,0.318728 1.259859,1.22589 1.554421,1.671349 1.256429,1.900078 1.572623,4.153788 0.877625,6.255389 -0.275744,0.833821 -0.756174,1.704881 -1.289483,2.337943 l -0.198236,0.235315 0.42936,0.258053 c 1.822858,1.09557 3.599599,3.165848 4.719103,5.498753 1.07617,2.242601 1.608464,4.592402 1.708157,7.540614 l 0.03708,1.09657 H 22.508182 10.261733 Z"
     id="path121" />
</svg>
