<?xml version="1.0" encoding="UTF-8" standalone="no"?>
<svg
   version="1.1"
   width="45"
   height="45"
   id="svg15"
   sodipodi:docname="Chess_krt45.svg"
   inkscape:version="1.1.1 (3bf5ae0d25, 2021-09-20)"
   xmlns:inkscape="http://www.inkscape.org/namespaces/inkscape"
   xmlns:sodipodi="http://sodipodi.sourceforge.net/DTD/sodipodi-0.dtd"
   xmlns="http://www.w3.org/2000/svg"
   xmlns:svg="http://www.w3.org/2000/svg">
  <defs
     id="defs19" />
  <sodipodi:namedview
     id="namedview17"
     pagecolor="#ffffff"
     bordercolor="#666666"
     borderopacity="1.0"
     inkscape:pageshadow="2"
     inkscape:pageopacity="0.0"
     inkscape:pagecheckerboard="0"
     showgrid="false"
     inkscape:zoom="18.466667"
     inkscape:cx="22.5"
     inkscape:cy="22.472924"
     inkscape:window-width="1920"
     inkscape:window-height="1003"
     inkscape:window-x="0"
     inkscape:window-y="0"
     inkscape:window-maximized="1"
     inkscape:current-layer="svg15" />
  <g
     style="fill:none; fill-opacity:1; fill-rule:evenodd; stroke:#000000; stroke-width:1.5; stroke-linecap:round;stroke-linejoin:round;stroke-miterlimit:4; stroke-dasharray:none; stroke-opacity:1;"
     id="g13">
    <path
       d="M 22.5,11.63 L 22.5,6"
       style="fill:none; stroke:#000000; stroke-linejoin:miter;"
       id="path6570" />
    <path
       d="M 22.5,25 C 22.5,25 27,17.5 25.5,14.5 C 25.5,14.5 24.5,12 22.5,12 C 20.5,12 19.5,14.5 19.5,14.5 C 18,17.5 22.5,25 22.5,25"
       style="fill:#000000;fill-opacity:1; stroke-linecap:butt; stroke-linejoin:miter;"
       id="path3" />
    <path
       d="M 12.5,37 C 18,40.5 27,40.5 32.5,37 L 32.5,30 C 32.5,30 41.5,25.5 38.5,19.5 C 34.5,13 25,16 22.5,23.5 L 22.5,27 L 22.5,23.5 C 20,16 10.5,13 6.5,19.5 C 3.5,25.5 12.5,30 12.5,30 L 12.5,37"
       style="fill:#000000; stroke:#000000;"
       id="path5" />
    <path
       d="M 20,8 L 25,8"
       style="fill:none; stroke:#000000; stroke-linejoin:miter;"
       id="path7" />
    <path
       d="M 32,29.5 C 32,29.5 40.5,25.5 38.03,19.85 C 34.15,14 25,18 22.5,24.5 L 22.5,26.6 L 22.5,24.5 C 20,18 10.85,14 6.97,19.85 C 4.5,25.5 13,29.5 13,29.5"
       style="fill:none; stroke:#ffffff;"
       id="path9" />
    <path
       d="M 12.5,30 C 18,27 27,27 32.5,30 M 12.5,33.5 C 18,30.5 27,30.5 32.5,33.5 M 12.5,37 C 18,34 27,34 32.5,37"
       style="fill:none; stroke:#ffffff;"
       id="path11" />
  </g>
  <path
     style="fill:#ff0000;stroke-width:0.0541516"
     d="M 12.590253,28.393365 C 9.7640061,26.753754 7.9739641,24.865253 7.4395043,22.959306 7.2090785,22.13758 7.2923167,21.049938 7.6430998,20.299002 c 0.1592001,-0.340807 0.9376396,-1.180876 1.3943381,-1.50473 1.8996151,-1.347051 4.4660861,-1.33582 7.2080491,0.03154 2.253571,1.12381 4.379091,3.305367 5.307252,5.44717 l 0.182846,0.421932 0.01668,1.142511 0.01668,1.142511 -0.703971,0.03637 c -2.543448,0.131417 -5.075528,0.652522 -7.156794,1.472877 -0.332445,0.131037 -0.637048,0.237302 -0.676895,0.236144 -0.03985,-0.0012 -0.328315,-0.150543 -0.64104,-0.331966 z"
     id="path95" />
  <path
     style="fill:#ff0000;stroke-width:0.0541516"
     d="M 31.326715,28.584693 C 30.8445,28.36368 29.357641,27.884157 28.508243,27.675715 27.119225,27.33485 25.454541,27.094822 23.935018,27.01631 l -0.703971,-0.03637 0.01668,-1.142511 0.01668,-1.142511 0.182846,-0.421932 c 0.100566,-0.232063 0.333667,-0.675121 0.518002,-0.984572 1.698777,-2.851807 4.71692,-4.972191 7.709986,-5.416618 1.621061,-0.240705 3.09388,0.07619 4.287313,0.922479 0.456699,0.323854 1.235138,1.163923 1.394338,1.50473 0.344481,0.737444 0.427698,1.823952 0.203833,2.661287 -0.495793,1.854444 -2.367687,3.825826 -5.16021,5.434465 -0.317637,0.182975 -0.622174,0.331279 -0.676748,0.329563 -0.05457,-0.0017 -0.233252,-0.06455 -0.39706,-0.139624 z"
     id="path134" />
  <path
     style="fill:#ff0000;stroke-width:0.0541516"
     d="M 11.777978,31.780527 V 30.426089 L 11.25,30.111829 C 9.9895148,29.36157 8.5505562,28.222164 7.6146987,27.233301 6.4511028,26.003802 5.7164109,24.769602 5.3512101,23.430895 5.2229479,22.960728 5.2079412,22.810369 5.2069571,21.98556 c -9.829e-4,-0.823746 0.013737,-0.975656 0.1399428,-1.444199 0.2612069,-0.969742 0.5954761,-1.605195 1.2912616,-2.454718 1.6469276,-2.010826 4.1786165,-3.073385 6.7817875,-2.846341 1.750872,0.152708 3.440412,0.748612 4.966928,1.751847 l 0.13778,0.09055 -0.02085,-0.824743 c -0.02608,-1.031774 0.05026,-1.431072 0.418936,-2.191201 0.633596,-1.306331 1.473041,-2.179756 2.466291,-2.566123 l 0.379919,-0.147786 0.01449,-1.299366 0.01449,-1.2993648 -0.98922,-0.017852 C 19.955433,8.7208642 19.796316,8.7043802 19.65084,8.6163062 19.425216,8.4797104 19.291789,8.2398856 19.295411,7.977451 c 0.0035,-0.2569547 0.115497,-0.444523 0.351031,-0.5881373 0.1548,-0.094388 0.277277,-0.1055369 1.161318,-0.105718 l 0.988267,-2.024e-4 2.16e-4,-0.7445848 c 1.63e-4,-0.6429529 0.01463,-0.7682482 0.105909,-0.9179487 0.27383,-0.4490969 0.92189,-0.4490969 1.19572,0 0.09128,0.1497005 0.105734,0.2749958 0.105909,0.9179487 l 1.88e-4,0.7445848 0.988267,2.004e-4 c 0.884041,1.787e-4 1.006518,0.011331 1.161318,0.105718 0.235534,0.1436142 0.347485,0.3311826 0.351031,0.5881373 0.0036,0.2624345 -0.129805,0.5022594 -0.355429,0.6388552 -0.145476,0.088074 -0.304593,0.1045583 -1.157873,0.1199569 l -0.98922,0.017852 0.01449,1.2993649 0.01449,1.299366 0.389696,0.15159 c 0.478314,0.186061 0.96703,0.529664 1.400806,0.984868 0.42584,0.446876 0.72344,0.891941 1.054789,1.577451 0.366943,0.759146 0.449896,1.196015 0.420902,2.216658 l -0.02272,0.799826 0.138192,-0.09082 c 1.955987,-1.285474 4.294028,-1.933218 6.317678,-1.750286 2.48007,0.224191 4.560973,1.467449 5.976329,3.570621 0.920458,1.36777 1.165482,3.338795 0.62336,5.014432 -0.708164,2.188852 -2.813605,4.486859 -5.733206,6.257572 l -0.57454,0.348454 -1.63e-4,1.353237 -1.62e-4,1.353237 -0.138538,-0.149406 C 32.824978,32.711508 31.449331,32.084715 30.135876,31.647251 27.768133,30.858639 25.361758,30.495756 22.5,30.495756 c -2.302804,0 -4.023408,0.197889 -6.038215,0.694463 -1.856907,0.457657 -4.016084,1.308886 -4.507814,1.77715 l -0.175993,0.167595 z m 1.538713,-1.315558 c 2.315068,-1.132827 4.828144,-1.72889 8.034696,-1.905705 0.87679,-0.04835 1.420436,-0.04835 2.297226,0 3.213731,0.177211 5.718667,0.772392 8.048043,1.912242 0.579696,0.283667 0.696931,0.322857 0.888814,0.29712 0.421114,-0.05648 0.715796,-0.416059 0.674703,-0.823283 l -0.02191,-0.217112 0.492685,-0.297329 c 2.829765,-1.707724 4.760497,-3.912506 5.348704,-6.107901 0.160832,-0.600282 0.198493,-1.838217 0.07463,-2.45331 -0.236796,-1.175959 -0.525893,-1.689071 -1.491742,-2.647669 -0.692869,-0.687667 -1.231731,-1.057523 -2.062735,-1.415788 -2.396027,-1.032984 -5.506744,-0.634503 -8.375988,1.072957 -1.691958,1.006869 -3.545378,2.818365 -4.464577,4.363589 -0.11959,0.201038 -0.235492,0.365523 -0.25756,0.365523 -0.02207,0 -0.156567,-0.188854 -0.298888,-0.419675 -0.664275,-1.077346 -1.802433,-2.35576 -2.843591,-3.19401 -2.402964,-1.934658 -5.263376,-2.948732 -7.698519,-2.729281 -1.722049,0.155187 -3.0641257,0.743026 -4.2348804,1.854906 -0.9725634,0.923655 -1.3449184,1.571338 -1.5806654,2.749448 -0.1232163,0.615754 -0.085244,1.854452 0.075207,2.45331 0.5881903,2.195332 2.5171232,4.399109 5.3432868,6.104626 l 0.487268,0.294054 v 0.284105 c 0,0.332096 0.123649,0.538556 0.409986,0.684563 0.29198,0.148885 0.456514,0.1168 1.155802,-0.22538 z"
     id="path173" />
  <path
     style="fill:#ff0000;stroke-width:0.0541516"
     d="m 11.778247,35.251219 2.69e-4,-1.406454 0.121572,0.143816 c 0.310953,0.367846 0.657516,0.360916 1.435652,-0.02871 3.369302,-1.687059 8.196221,-2.326568 12.684116,-1.680495 2.029499,0.292165 3.864185,0.82851 5.46314,1.597074 0.992538,0.477079 1.290919,0.497771 1.616915,0.112129 l 0.121573,-0.143816 2.69e-4,1.401708 2.69e-4,1.401707 -0.114875,-0.14604 C 32.814221,36.129746 30.33816,35.12813 28.700361,34.719509 26.6114,34.198325 24.949998,34.007556 22.5,34.007556 c -2.545452,0 -4.381563,0.22374 -6.495702,0.791536 -1.690265,0.453956 -3.889254,1.377352 -4.143096,1.739762 -0.07578,0.108183 -0.0832,-0.0071 -0.08296,-1.287635 z"
     id="path212" />
  <path
     style="fill:#ff0000;stroke-width:0.0541516"
     d="m 21.33574,40.315099 c -3.04613,-0.15905 -5.938198,-0.914361 -8.254462,-2.15579 -0.658971,-0.353183 -0.669297,-0.361544 -0.487365,-0.394613 0.102229,-0.01858 0.514842,-0.193213 0.916917,-0.388068 1.949928,-0.944981 4.315977,-1.542196 7.012636,-1.77006 0.837051,-0.07073 3.116017,-0.07073 3.953068,0 2.714476,0.22937 5.041543,0.81924 7.060613,1.789739 0.428464,0.205948 0.842724,0.375212 0.920578,0.376141 0.133228,0.0016 0.128814,0.0097 -0.07505,0.137043 -0.376191,0.235073 -1.600356,0.818272 -2.247292,1.070621 -2.567064,1.001332 -5.799071,1.491658 -8.799639,1.334987 z"
     id="path251" />
</svg>
