<?xml version="1.0" encoding="UTF-8" standalone="no"?>
<!-- Created with Inkscape (http://www.inkscape.org/) -->

<svg
   width="80"
   height="80"
   viewBox="0 0 21.166666 21.166667"
   version="1.1"
   id="svg5"
   inkscape:version="1.1.1 (3bf5ae0d25, 2021-09-20)"
   sodipodi:docname="Litera_C.svg"
   xmlns:inkscape="http://www.inkscape.org/namespaces/inkscape"
   xmlns:sodipodi="http://sodipodi.sourceforge.net/DTD/sodipodi-0.dtd"
   xmlns="http://www.w3.org/2000/svg"
   xmlns:svg="http://www.w3.org/2000/svg">
  <sodipodi:namedview
     id="namedview7"
     pagecolor="#505050"
     bordercolor="#eeeeee"
     borderopacity="1"
     inkscape:pageshadow="0"
     inkscape:pageopacity="0"
     inkscape:pagecheckerboard="0"
     inkscape:document-units="mm"
     showgrid="true"
     showguides="false"
     units="px"
     width="80px"
     inkscape:zoom="2.5722563"
     inkscape:cx="26.824699"
     inkscape:cy="62.2022"
     inkscape:window-width="1920"
     inkscape:window-height="1003"
     inkscape:window-x="0"
     inkscape:window-y="0"
     inkscape:window-maximized="1"
     inkscape:current-layer="layer1">
    <inkscape:grid
       type="xygrid"
       id="grid125" />
  </sodipodi:namedview>
  <defs
     id="defs2" />
  <g
     inkscape:label="Layer 1"
     inkscape:groupmode="layer"
     id="layer1">
    <g
       aria-label="C"
       transform="matrix(1.0367778,0,0,0.92427907,0,0.0070069)"
       id="text6949"
       style="font-size:28.9438px;line-height:1.25;stroke-width:0.723598">
      <path
         d="M 18.970876,2.1809398 V 5.1912081 Q 17.529339,3.8486002 15.889944,3.1843626 14.264682,2.520125 12.427429,2.520125 q -3.6179754,0 -5.5400246,2.2188362 -1.9220492,2.2047035 -1.9220492,6.3879868 0,4.169151 1.9220492,6.387987 1.9220492,2.204704 5.5400246,2.204704 1.837253,0 3.462515,-0.664238 1.639395,-0.664237 3.080932,-2.006845 v 2.982003 q -1.498068,1.017555 -3.179861,1.526333 -1.667661,0.508778 -3.533179,0.508778 -4.7909903,0 -7.5468697,-2.925472 -2.7558794,-2.939605 -2.7558794,-8.01325 0,-5.087777 2.7558794,-8.013249 2.7558794,-2.9396047 7.5468697,-2.9396047 1.893784,0 3.561444,0.50877774 1.681793,0.49464506 3.151596,1.49806776 z"
         id="path9" />
    </g>
  </g>
</svg>
