<?xml version="1.0" encoding="UTF-8" standalone="no"?>
<!-- Created with Inkscape (http://www.inkscape.org/) -->

<svg
   width="80"
   height="80"
   viewBox="0 0 21.166666 21.166667"
   version="1.1"
   id="svg5"
   inkscape:version="1.1.1 (3bf5ae0d25, 2021-09-20)"
   sodipodi:docname="Number_3.svg"
   xmlns:inkscape="http://www.inkscape.org/namespaces/inkscape"
   xmlns:sodipodi="http://sodipodi.sourceforge.net/DTD/sodipodi-0.dtd"
   xmlns="http://www.w3.org/2000/svg"
   xmlns:svg="http://www.w3.org/2000/svg">
  <sodipodi:namedview
     id="namedview7"
     pagecolor="#505050"
     bordercolor="#eeeeee"
     borderopacity="1"
     inkscape:pageshadow="0"
     inkscape:pageopacity="0"
     inkscape:pagecheckerboard="0"
     inkscape:document-units="mm"
     showgrid="true"
     showguides="false"
     units="px"
     width="80px"
     inkscape:zoom="2.5722563"
     inkscape:cx="26.824699"
     inkscape:cy="62.2022"
     inkscape:window-width="1920"
     inkscape:window-height="1003"
     inkscape:window-x="0"
     inkscape:window-y="0"
     inkscape:window-maximized="1"
     inkscape:current-layer="layer1">
    <inkscape:grid
       type="xygrid"
       id="grid125" />
  </sodipodi:namedview>
  <defs
     id="defs2" />
  <g
     inkscape:label="Layer 1"
     inkscape:groupmode="layer"
     id="layer1">
    <g
       aria-label="3"
       transform="matrix(1.2634615,0,0,0.77453178,0,0.00359421)"
       id="text6949"
       style="font-size:35.2722px;line-height:1.25;stroke-width:0.881807">
      <path
         d="m 11.410015,12.526384 q 2.497299,0.533905 3.892342,2.221735 1.412266,1.68783 1.412266,4.167907 0,3.806229 -2.617859,5.890182 -2.617858,2.083953 -7.4402295,2.083953 -1.618939,0 -3.3412144,-0.327232 -1.7050527,-0.31001 -3.53066474,-0.947252 V 22.25724 q 1.44671144,0.843915 3.16898684,1.274484 1.7222755,0.430569 3.5995557,0.430569 3.2723234,0 4.9773761,-1.291707 1.722276,-1.291706 1.722276,-3.75456 0,-2.273404 -1.601717,-3.547888 Q 10.06664,14.076432 7.2248854,14.076432 H 4.2281261 v -2.858978 h 3.1345413 q 2.5661905,0 3.9267876,-1.016142 1.360598,-1.0333654 1.360598,-2.9623139 0,-1.9806168 -1.412266,-3.0312048 -1.3950429,-1.0678108 -4.0129016,-1.0678108 -1.4294887,0 -3.0656504,0.3100096 Q 2.5230734,3.7600017 0.55967932,4.4144664 V 1.3143705 Q 2.5402961,0.76324236 4.2625716,0.48767829 6.0020698,0.21211421 7.534895,0.21211421 q 3.961234,0 6.269083,1.80838929 2.307849,1.7911664 2.307849,4.8568168 0,2.1356215 -1.222816,3.6167787 -1.222815,1.463934 -3.478996,2.032285 z"
         id="path9" />
    </g>
  </g>
</svg>
